<?xml version="1.0" encoding="utf-8"?>
<!-- Generator: Adobe Adobe Illustrator 24.2.0, SVG Export Plug-In . SVG Version: 6.00 Build 0)  -->
<svg version="1.1" id="Layer_2" xmlns="http://www.w3.org/2000/svg" xmlns:xlink="http://www.w3.org/1999/xlink" x="0px" y="0px"
	 width="24px" height="24px" viewBox="0 0 24 24" style="enable-background:new 0 0 24 24;" xml:space="preserve">
<style type="text/css">
	.st0{fill:#6489FA;}
	.st1{fill:#FAA264;}
	.st2{opacity:0.451;fill:#6489FA;}
	.st3{opacity:0.302;fill:#6489FA;}
</style>
<path class="st0" d="M1,8.25v-2c0-0.28,0.22-0.5,0.5-0.5l7,0c0.28,0,0.5,0.22,0.5,0.5v2c0,0.28-0.22,0.5-0.5,0.5h-7
	C1.22,8.75,1,8.53,1,8.25z"/>
<path class="st0" d="M5,18v-2c0-0.28,0.22-0.5,0.5-0.5l7,0c0.28,0,0.5,0.22,0.5,0.5v2c0,0.28-0.22,0.5-0.5,0.5h-7
	C5.22,18.5,5,18.28,5,18z"/>
<path class="st0" d="M10.75,23v-2c0-0.28,0.22-0.5,0.5-0.5h7c0.28,0,0.5,0.22,0.5,0.5v2c0,0.28-0.22,0.5-0.5,0.5h-7
	C10.97,23.5,10.75,23.28,10.75,23z"/>
<path class="st0" d="M7,3.5v-2C7,1.22,7.22,1,7.5,1l7,0C14.78,1,15,1.22,15,1.5v2C15,3.78,14.78,4,14.5,4h-7C7.22,4,7,3.78,7,3.5z"
	/>
<path class="st1" d="M15,8.25v-2c0-0.28,0.22-0.5,0.5-0.5l7,0c0.28,0,0.5,0.22,0.5,0.5v2c0,0.28-0.22,0.5-0.5,0.5h-7
	C15.22,8.75,15,8.53,15,8.25z"/>
<path class="st2" d="M0,12.5v-1c0-0.55,0.45-1,1-1h22c0.55,0,1,0.45,1,1v1c0,0.55-0.45,1-1,1H1C0.45,13.5,0,13.05,0,12.5z"/>
<rect x="4.25" y="9.12" class="st3" width="1" height="1"/>
<rect x="10.5" y="4.25" class="st3" width="1" height="6"/>
<rect x="8.5" y="13.62" class="st3" width="1" height="1.5"/>
<rect x="18.5" y="9" class="st3" width="1" height="1"/>
<rect x="14.25" y="14" class="st3" width="1" height="6"/>
</svg>
